<?xml version="1.0" standalone="no"?>
<!DOCTYPE svg PUBLIC "-//W3C//DTD SVG 20010904//EN"
 "http://www.w3.org/TR/2001/REC-SVG-20010904/DTD/svg10.dtd">
<svg version="1.0" xmlns="http://www.w3.org/2000/svg"
 width="640.000000pt" height="640.000000pt" viewBox="0 0 640.000000 640.000000"
 preserveAspectRatio="xMidYMid meet">
<metadata>
Created by potrace 1.11, written by Peter Selinger 2001-2013
</metadata>
<g transform="translate(0.000000,640.000000) scale(0.100000,-0.100000)"
fill="#000000" stroke="none">
<path d="M1428 5230 c-9 -8 -38 -78 -63 -155 -48 -148 -252 -766 -540 -1635
-96 -289 -176 -537 -179 -552 -5 -32 6 -41 54 -44 47 -3 184 -14 240 -19 25
-3 77 -7 115 -10 147 -10 231 -17 269 -21 48 -4 87 17 105 57 21 48 107 135
156 158 111 52 232 21 283 -74 30 -54 21 -196 -23 -370 -43 -173 -68 -246 -93
-268 -22 -20 -70 -27 -99 -14 -35 16 -37 45 -12 172 14 76 17 87 27 132 12 50
3 60 -48 57 -19 -1 -102 -5 -185 -8 -82 -4 -190 -9 -240 -11 -218 -11 -319
-15 -445 -21 -198 -8 -211 -10 -220 -25 -8 -12 -62 -222 -75 -287 -2 -13 -7
-32 -10 -42 -18 -55 -31 -193 -29 -297 2 -100 9 -153 38 -283 13 -55 73 -187
115 -250 174 -264 440 -394 806 -394 85 0 214 9 261 18 12 3 39 7 60 10 61 10
145 34 251 70 318 111 593 332 791 636 61 92 176 317 188 365 4 17 10 35 14
40 9 13 64 191 84 275 17 70 20 80 31 150 4 25 9 54 11 65 17 85 22 291 10
410 -47 468 -337 786 -771 842 -68 9 -239 9 -302 0 -64 -9 -210 -54 -218 -67
-3 -6 -15 -10 -26 -10 -24 0 -21 17 24 135 29 76 59 131 82 148 5 4 44 5 85 2
101 -7 219 -14 310 -20 41 -2 118 -7 170 -11 52 -3 122 -8 155 -9 117 -7 251
-15 300 -19 28 -3 111 -7 185 -11 130 -6 135 -6 148 15 10 16 148 439 167 510
2 8 22 71 44 140 151 477 162 513 151 524 -8 8 -320 11 -1072 11 -930 0 -1064
-2 -1080 -15z"/>
<path d="M4847 5244 c-1 -1 -35 -4 -75 -8 -40 -3 -76 -7 -80 -10 -4 -2 -27 -7
-52 -10 -61 -8 -182 -42 -260 -73 -153 -62 -267 -138 -390 -262 -199 -201
-319 -442 -416 -835 -30 -124 -34 -151 -22 -162 13 -13 53 -16 423 -29 61 -2
189 -7 285 -11 282 -11 288 -11 311 13 13 13 30 62 50 144 34 144 52 171 117
172 52 1 72 -16 72 -63 0 -54 -47 -295 -64 -328 -50 -96 -129 -129 -315 -131
-66 -1 -134 -6 -151 -11 -16 -5 -33 -8 -37 -7 -25 8 -60 -119 -119 -428 -3
-19 -7 -35 -19 -92 -3 -13 -8 -33 -11 -45 -3 -13 -7 -36 -10 -53 -3 -16 -9
-46 -15 -65 -14 -56 -11 -97 9 -105 9 -4 85 -9 169 -10 185 -4 205 -8 239 -48
26 -31 26 -34 21 -127 -3 -52 -9 -108 -12 -125 -3 -16 -13 -64 -22 -105 -8
-41 -17 -86 -19 -99 -16 -83 -116 -139 -164 -91 -24 24 -23 50 6 200 9 47 18
96 20 110 3 14 7 32 10 41 8 29 -19 39 -97 35 -92 -5 -278 -15 -429 -21 -63
-3 -153 -8 -200 -10 -47 -2 -148 -7 -225 -10 -76 -3 -145 -11 -152 -16 -11
-10 -29 -53 -38 -95 -65 -304 -69 -332 -69 -479 -1 -230 45 -394 154 -555 79
-116 167 -193 302 -264 162 -85 317 -117 543 -112 294 7 549 87 791 249 338
226 576 581 666 994 28 129 30 335 4 438 -50 199 -171 358 -329 434 -48 22
-87 43 -87 46 0 2 28 19 63 36 69 35 163 93 184 115 8 8 18 14 22 14 4 0 47
39 95 88 263 264 395 590 389 952 -5 231 -72 406 -213 550 -72 73 -124 112
-215 157 -102 51 -211 82 -354 99 -48 6 -279 12 -284 8z"/>
</g>
</svg>
