<svg height="512pt" viewBox="0 0 512 512" width="512pt" xmlns="http://www.w3.org/2000/svg"><path d="m268.050781 267.101562h-130.976562c-53.46875 0-96.964844 43.5-96.964844 96.96875v147.675782h324.90625v-147.675782c0-53.46875-43.5-96.96875-96.964844-96.96875zm0 0" fill="#5a5a5a"/><path d="m365.015625 364.070312c0-53.46875-43.5-96.96875-96.964844-96.96875h-64.824219v244.644532h161.789063zm0 0" fill="#444"/><path d="m250.6875 355.382812 45.289062-84.171874c-7.449218-2.246094-15.273437-3.621094-23.355468-3.996094l-140.164063.003906c-7.652343.359375-15.074219 1.609375-22.167969 3.648438l45.492188 84.515624zm0 0" fill="#ede9e8"/><path d="m295.980469 271.210938c-7.453125-2.246094-15.277344-3.621094-23.359375-3.996094h-69.394532v88.167968h47.460938zm0 0" fill="#dfd7d5"/><path d="m203.242188 288.707031-55.25 52.203125 55.25 102.636719 55.230468-102.636719zm0 0" fill="#dfd7d5"/><path d="m258.472656 340.910156-55.230468-52.203125-.015626.011719v154.800781l.015626.027344zm0 0" fill="#d2c5c2"/><path d="m429.238281 394.914062h30v116.914063h-30zm0 0" fill="#913f02"/><path d="m444.238281 394.914062h15v116.914063h-15zm0 0" fill="#7b3310"/><path d="m86.140625 84.464844v136.988281l1.453125 3.054687c10.183594 21.429688 26.128906 39.554688 46.105469 52.414063 20.507812 13.203125 44.324219 20.179687 68.867187 20.179687 49.859375 0 95.363282-29.292968 115.925782-74.628906l1.335937-2.953125v-135.054687zm0 0" fill="#fed2a4"/><path d="m203.226562 84.464844v212.625c49.601563-.257813 94.796876-29.484375 115.265626-74.617188l1.335937-2.953125v-135.054687zm0 0" fill="#ffbd86"/><path d="m143.351562 170.277344h30v25.027344h-30zm0 0" fill="#444"/><path d="m231.78125 170.277344h30v25.027344h-30zm0 0" fill="#444"/><path d="m202.558594 266.09375c-23.140625 0-41.96875-18.824219-41.96875-41.964844h30c0 6.597656 5.367187 11.96875 11.96875 11.96875 6.597656 0 11.964844-5.371094 11.964844-11.96875h30c0 23.140625-18.824219 41.964844-41.964844 41.964844zm0 0" fill="#ff641a"/><path d="m391.453125 322.199219h105.546875v87.714843h-105.546875zm0 0" fill="#b34f03"/><g fill="#913f02"><path d="m444.238281 322.199219h52.761719v87.714843h-52.761719zm0 0"/><path d="m482 310.570312h30v110.972657h-30zm0 0"/><path d="m376.457031 310.570312h29.996094v110.972657h-29.996094zm0 0"/></g><path d="m406.453125 146.988281c0-15.441406-5.929687-30.042969-16.703125-41.105469-7.257812-7.460937-16.183594-12.765624-25.957031-15.5625v-4.308593c0-47.425781-38.582031-86.011719-86.011719-86.011719h-19.21875c-22.441406 0-42.449219 10.578125-55.335938 26.996094-12.886718-16.417969-32.890624-26.996094-55.335937-26.996094h-19.21875c-47.429687 0-86.011719 38.585938-86.011719 86.011719v4.308593c-9.773437 2.796876-18.695312 8.101563-25.957031 15.5625-10.769531 11.0625-16.703125 25.664063-16.703125 41.105469 0 10.375 2.71875 20.457031 7.804688 29.316407-5.488282 9.535156-8.199219 20.453124-7.757813 31.695312 1.203125 30.558594 26.085937 55.398438 56.644531 56.554688.757813.027343 1.519532.042968 2.269532.042968 32.511718 0 58.960937-26.449218 58.960937-58.960937 0-10.375-2.722656-20.460938-7.808594-29.324219 5.085938-8.859375 7.808594-18.945312 7.808594-29.324219v-.355469c-.015625-2.445312.902344-4.722656 2.582031-6.414062 1.121094-1.128906 3.0625-2.472656 5.945313-2.472656h26.992187c19.992188 0 37.894532-9.105469 49.785156-23.382813 11.894532 14.277344 29.796876 23.382813 49.789063 23.382813h26.992187c2.882813 0 4.824219 1.34375 5.945313 2.472656 1.679687 1.691406 2.597656 3.96875 2.582031 6.503906v.265625c0 10.378907 2.722656 20.464844 7.808594 29.324219-5.085938 8.863281-7.808594 18.949219-7.808594 29.324219 0 32.511719 26.449219 58.960937 58.960938 58.960937.75 0 1.507812-.015625 2.265625-.042968 30.5625-1.15625 55.445312-25.996094 56.648437-56.554688.441406-11.242188-2.273437-22.160156-7.757812-31.695312 5.082031-8.859376 7.800781-18.941407 7.800781-29.316407zm0 0" fill="#ede9e8"/><path d="m406.453125 146.988281c0-15.441406-5.929687-30.042969-16.703125-41.105469-7.257812-7.460937-16.183594-12.765624-25.957031-15.5625v-4.308593c0-47.425781-38.582031-86.011719-86.011719-86.011719h-19.21875c-22.441406 0-42.449219 10.578125-55.335938 26.996094v87.367187c11.894532 14.277344 29.796876 23.382813 49.785157 23.382813h26.996093c2.882813 0 4.824219 1.34375 5.945313 2.472656 1.679687 1.691406 2.59375 3.96875 2.582031 6.503906v.265625c0 10.378907 2.71875 20.464844 7.804688 29.324219-5.085938 8.863281-7.804688 18.949219-7.804688 29.324219 0 32.511719 26.449219 58.960937 58.957032 58.960937.753906 0 1.511718-.015625 2.269531-.042968 30.5625-1.15625 55.441406-25.996094 56.644531-56.554688.441406-11.242188-2.269531-22.160156-7.753906-31.695312 5.082031-8.859376 7.800781-18.941407 7.800781-29.316407zm0 0" fill="#dfd7d5"/><path d="m231.78125 170.277344h30v25.027344h-30zm0 0" fill="#292929"/><path d="m482 310.570312h30v110.972657h-30zm0 0" fill="#7b3310"/><path d="m244.523438 224.128906h-30c0 6.371094-5.007813 11.582032-11.296876 11.933594v30.015625c22.832032-.359375 41.296876-19.035156 41.296876-41.949219zm0 0" fill="#ff4b00"/></svg>