<svg height="512pt" viewBox="0 0 512 512" width="512pt" xmlns="http://www.w3.org/2000/svg"><path d="m168 8h336v288h-336zm0 0" fill="#ffe082"/><path d="m168 8h336v64h-336zm0 0" fill="#9fa8da"/><path d="m8 216h336v288h-336zm0 0" fill="#ffe082"/><path d="m8 216h336v64h-336zm0 0" fill="#9fa8da"/><path d="m437.257812 122.742188c-24.996093-24.992188-65.519531-24.992188-90.515624 0l-33.941407 33.945312c-24.996093 24.996094-24.996093 65.519531 0 90.511719 24.992188 24.996093 65.515625 24.996093 90.511719 0l33.945312-33.933594c25-24.996094 25-65.527344 0-90.523437zm-56.570312 101.824218c-12.496094 12.5-32.757812 12.5-45.253906 0-12.5-12.496094-12.5-32.757812 0-45.253906l33.941406-33.9375c8.035156-8.316406 19.933594-11.652344 31.121094-8.726562 11.1875 2.929687 19.925781 11.667968 22.855468 22.855468 2.925782 11.1875-.410156 23.085938-8.726562 31.121094zm0 0" fill="#ff8a65"/><path d="m290.175781 269.824219c-24.992187-24.996094-65.519531-24.996094-90.511719 0l-33.9375 33.945312c-24.515624 25.070313-24.289062 65.203125.503907 90 24.796875 24.792969 64.929687 25.019531 90 .503907l33.945312-33.9375c24.996094-24.992188 24.996094-65.519532 0-90.511719zm-56.574219 101.824219c-12.558593 12.125-32.515624 11.953124-44.859374-.390626s-12.515626-32.300781-.390626-44.859374l33.945313-33.941407c12.496094-12.5 32.757813-12.5 45.253906 0 12.5 12.496094 12.5 32.757813 0 45.253907zm0 0" fill="#ff8a65"/><path d="m363.710938 196.28125c6.246093 6.25 6.246093 16.378906 0 22.628906l-101.824219 101.824219c-6.25 6.246094-16.378907 6.246094-22.628907 0-6.246093-6.25-6.246093-16.378906 0-22.628906l101.824219-101.824219c6.25-6.246094 16.378907-6.246094 22.628907 0zm0 0" fill="#ff7043"/><g fill="#fff"><path d="m144 240h40v16h-40zm0 0"/><path d="m32 240h16v16h-16zm0 0"/><path d="m64 240h16v16h-16zm0 0"/><path d="m96 240h16v16h-16zm0 0"/><path d="m304 32h176v16h-176zm0 0"/><path d="m192 32h16v16h-16zm0 0"/><path d="m224 32h16v16h-16zm0 0"/><path d="m256 32h16v16h-16zm0 0"/><path d="m48 344h96v16h-96zm0 0"/><path d="m208 112h140v16h-140zm0 0"/><path d="m208 160h92v16h-92zm0 0"/><path d="m48 392h124v16h-124zm0 0"/><path d="m48 440h256v16h-256zm0 0"/></g><path d="m160 0v208h-160v304h352v-208h160v-304zm-144 224h273.550781c.972657 3.070312 2.152344 6.070312 3.527344 8.984375l-17.078125 17.113281c-27.542969-13.15625-60.382812-7.519531-81.960938 14.070313l-7.863281 7.832031h-170.175781zm353.375-33.367188c-8.285156-7.882812-20.898438-9.042968-30.480469-2.800781.65625-1.007812 1.390625-1.964843 2.195313-2.863281l33.933594-33.945312c9.375-9.375 24.578124-9.375 33.953124 0s9.375 24.578124 0 33.953124l-33.945312 33.933594c-.851562.757813-1.757812 1.449219-2.710938 2.074219 6.398438-9.519531 5.164063-22.238281-2.945312-30.351563zm-22.621094 11.3125c1.996094-2.128906 4.996094-3 7.820313-2.273437 2.828125.726563 5.035156 2.933594 5.757812 5.761719.726563 2.828125-.148437 5.824218-2.277343 7.824218l-101.824219 101.820313c-3.160157 3.027344-8.140625 3.027344-11.300781 0-3.121094-3.121094-3.121094-8.179687 0-11.300781zm-96.179687 131.480469c4.785156.015625 9.464843-1.414062 13.425781-4.097656-.621094.957031-1.3125 1.867187-2.070312 2.71875l-33.945313 33.945313c-9.375 9.375-24.570313 9.375-33.945313 0-9.371093-9.375-9.371093-24.570313 0-33.945313l33.945313-33.941406c.855469-.757813 1.761719-1.453125 2.710937-2.082031-6.425781 9.53125-5.191406 22.28125 2.945313 30.402343 4.488281 4.496094 10.582031 7.015625 16.933594 7zm-33.933594-46.632812-33.945313 33.941406c-15.503906 15.640625-15.449218 40.875.125 56.445313 15.570313 15.574218 40.804688 15.628906 56.445313.125l33.941406-33.945313c8.863281-8.910156 13.039063-21.460937 11.28125-33.902344l13.113281-13.136719c7.273438 20.347657 2.175782 43.066407-13.097656 58.351563l-33.945312 33.945313c-21.867188 21.871093-57.328125 21.871093-79.199219 0-21.871094-21.871094-21.871094-57.332032 0-79.203126l33.945313-33.941406c15.296874-15.269531 38.027343-20.359375 58.375-13.074218l-13.136719 13.136718c-12.4375-1.757812-24.984375 2.40625-33.902344 11.257813zm119.359375 209.207031h-320v-208h154.175781l-10.105469 10.113281c-18.550781 18.113281-25.933593 44.800781-19.324218 69.875s26.191406 44.65625 51.265625 51.265625 51.761719-.773437 69.875-19.324218l33.945312-33.9375c21.601563-21.582032 27.242188-54.441407 14.070313-81.992188l17.226562-17.214844c2.875 1.382813 5.839844 2.574219 8.871094 3.566406zm3.304688-241.359375 13.128906-13.128906c1.851562.265625 3.722656.40625 5.597656.417969 10.625.003906 20.820312-4.203126 28.34375-11.707032l33.945312-33.933594c15.621094-15.625 15.621094-40.953124 0-56.578124-15.625-15.621094-40.953124-15.621094-56.578124 0l-33.941407 33.945312c-8.859375 8.917969-13.027343 21.464844-11.273437 33.910156l-13.167969 13.136719c-7.292969-20.363281-2.191406-43.105469 13.105469-58.398437l33.933594-33.90625c21.871093-21.867188 57.332031-21.867188 79.203124 0 21.867188 21.871093 21.867188 57.332031 0 79.203124l-33.945312 33.933594c-15.289062 15.269532-38.003906 20.371094-58.351562 13.105469zm156.695312 33.359375h-144v-14.398438c2.007812.167969 4 .398438 6.015625.398438 19.117187.007812 37.449219-7.589844 50.953125-21.121094l33.941406-33.933594c28.128906-28.121093 28.136719-73.714843.019532-101.839843-28.121094-28.128907-73.714844-28.136719-101.839844-.015625l-33.9375 33.941406c-14.992188 14.996094-22.609375 35.839844-20.808594 56.96875h-110.34375v-128h320zm0-224h-320v-48h320zm0 0"/></svg>