<svg id="Calque_2" data-name="Calque 2" xmlns="http://www.w3.org/2000/svg" viewBox="0 0 996.8 707"><defs><style>.cls-1{fill:#b4c6d7;}.cls-2{fill:none;stroke:#b4c6d7;stroke-miterlimit:10;stroke-width:5px;}</style></defs><title>spine</title><path class="cls-1" d="M965.43,187.38Q1070.07,366.17,1174.67,545c-22.82-.46-45.71-1.69-68.46-3.86l.28-3.12-205-348.59.53-5.51C923.08,185.87,944.29,187,965.43,187.38Z" transform="translate(-180.65 -14.39)"/><path class="cls-1" d="M569.72,20.93Q676.88,204.08,784,387.23l-1.68,1.65c-64.75,137.56-182.12,249.28-321.85,308.8l-.63-1.54Q354.66,516.37,249.42,336.61l-2.88-6.52C383.22,269.86,497.75,159.58,561.45,24.3l5.81-6.49C568.07,18.87,568.91,19.92,569.72,20.93Z" transform="translate(-180.65 -14.39)"/><path class="cls-2" d="M181.55,354.42l1.22-.39a598.67,598.67,0,0,0,63.77-23.94C383.22,269.86,497.75,159.58,561.45,24.3" transform="translate(-180.65 -14.39)"/><path class="cls-2" d="M402.4,719c7.18-2.21,14.34-4.6,21.42-7.08q18.56-6.52,36.63-14.24c139.73-59.52,257.1-171.24,321.85-308.8" transform="translate(-180.65 -14.39)"/><path class="cls-2" d="M182.81,354.14Q288,533.92,393.21,713.67" transform="translate(-180.65 -14.39)"/><path class="cls-2" d="M249.42,336.61Q354.63,516.4,459.82,696.14" transform="translate(-180.65 -14.39)"/><path class="cls-2" d="M901.45,189.38l205,348.59" transform="translate(-180.65 -14.39)"/><path class="cls-2" d="M964.55,185.87l.88,1.51Q1070.07,366.17,1174.67,545a2.32,2.32,0,0,1,.25.42,0,0,0,0,1,0,0" transform="translate(-180.65 -14.39)"/><path class="cls-2" d="M566.63,15.64l3.09,5.29Q676.88,204.08,784,387.23" transform="translate(-180.65 -14.39)"/><path class="cls-2" d="M395.53,718.19l28.29-6.27q375.54-83.29,751.1-166.55l1.68-.39" transform="translate(-180.65 -14.39)"/><path class="cls-2" d="M567.26,17.81c.81,1.06,1.65,2.11,2.46,3.12,38.73,48.59,89.64,88.59,147.41,115.76,57.45,27,120.69,41.15,184.85,47.18,21.1,2,42.31,3.12,63.45,3.51a7.86,7.86,0,0,0,.84,0" transform="translate(-180.65 -14.39)"/><path class="cls-2" d="M784.61,389.4C823,435.29,873.86,473,931.84,498.46c54.3,23.84,113.79,36.74,174.37,42.63,22.75,2.17,45.64,3.4,68.46,3.86l1.93,0" transform="translate(-180.65 -14.39)"/></svg>