<svg height="512" viewBox="0 0 64 64" width="512" xmlns="http://www.w3.org/2000/svg"><g id="Tombstone"><path d="m60 47a1 1 0 0 0 -1 1v3a1.993 1.993 0 0 1 -1 1.722v-4.722a1 1 0 0 0 -2 0v4.722a1.993 1.993 0 0 1 -1-1.722v-3a1 1 0 0 0 -2 0v3a4 4 0 0 0 3 3.858v5.142a1 1 0 0 0 2 0v-5.142a4 4 0 0 0 3-3.858v-3a1 1 0 0 0 -1-1z" fill="#5eac24"/><path d="m10 47a1 1 0 0 0 -1 1v3a1.993 1.993 0 0 1 -1 1.722v-4.722a1 1 0 0 0 -2 0v4.722a1.993 1.993 0 0 1 -1-1.722v-3a1 1 0 0 0 -2 0v3a4 4 0 0 0 3 3.858v5.142a1 1 0 0 0 2 0v-5.142a4 4 0 0 0 3-3.858v-3a1 1 0 0 0 -1-1z" fill="#4e901e"/><path d="m50 21v35.45l-.41-.17a46.012 46.012 0 0 0 -35.18 0l-.41.17v-35.45a18 18 0 1 1 36 0z" fill="#a7a9ac"/><path d="m44.73 8.27a17.728 17.728 0 0 0 -15.23-5.076 17.948 17.948 0 0 1 15.5 17.806v33.666a45.961 45.961 0 0 1 4.59 1.614l.41.17v-35.45a17.983 17.983 0 0 0 -5.27-12.73z" fill="#939598"/><path d="m50 56.45-.412-.17a46 46 0 0 0 -35.176 0l-.412.17-11 4.55h58l-11-4.552z" fill="#8b5e3c"/><path d="m50 56.448-.412-.17a45.991 45.991 0 0 0 -20.088-3.422 46 46 0 0 1 15.088 3.422l.412.17 11 4.552h5z" fill="#754c29"/><g fill="#414042"><path d="m21 32a1 1 0 0 0 1-1v-5h.465l3.7 5.555a1 1 0 1 0 1.664-1.11l-3.019-4.529a4 4 0 0 0 -.81-7.916h-3a1 1 0 0 0 -1 1v12a1 1 0 0 0 1 1zm1-12h2a2 2 0 0 1 0 4h-2z"/><path d="m32 32a1 1 0 0 0 1-1v-12a1 1 0 0 0 -2 0v12a1 1 0 0 0 1 1z"/><path d="m37 32a1 1 0 0 0 1-1v-5h2a4 4 0 0 0 0-8h-3a1 1 0 0 0 -1 1v12a1 1 0 0 0 1 1zm1-12h2a2 2 0 0 1 0 4h-2z"/></g><path d="m21 38h22a1 1 0 0 0 0-2h-22a1 1 0 0 0 0 2z" fill="#6d6e71"/><path d="m40 40h-16a1 1 0 0 0 0 2h16a1 1 0 0 0 0-2z" fill="#6d6e71"/></g></svg>