<?xml version="1.0" encoding="iso-8859-1"?>
<!-- Generator: Adobe Illustrator 19.0.0, SVG Export Plug-In . SVG Version: 6.00 Build 0)  -->
<svg version="1.1" id="Capa_1" xmlns="http://www.w3.org/2000/svg" xmlns:xlink="http://www.w3.org/1999/xlink" x="0px" y="0px"
	 viewBox="0 0 58 58" style="enable-background:new 0 0 58 58;" xml:space="preserve">
<rect x="4" y="44" style="fill:#38454F;" width="48" height="3"/>
<path style="fill:#546A79;" d="M49.335,37.845l-14.509-6.287l-4.392,4.392c-1.172,1.172-3.071,1.172-4.243,0s-1.172-3.071,0-4.243
	L29,28.899v-3.895L27,23v-3h-3c-1.657,0-3-1.343-3-3s1.343-3,3-3h3v-2l2-2V8.087C29,6.934,28.066,6,26.913,6H6.087
	C4.934,6,4,6.934,4,8.087v1.341c0,0.368,0.146,0.721,0.406,0.981l1.187,1.186C5.854,11.854,6,12.207,6,12.575v14.851
	c0,0.368-0.146,0.72-0.406,0.98l-1.188,1.188C4.146,29.854,4,30.207,4,30.574V44h18h7h23v-2.096
	C52,40.141,50.953,38.546,49.335,37.845z"/>
<path style="fill:#F0C419;" d="M36.142,30.243l-5.707,5.707c-1.172,1.172-3.071,1.172-4.243,0l0,0c-1.172-1.172-1.172-3.071,0-4.243
	L31.899,26L36.142,30.243z"/>
<path style="fill:#38454F;" d="M14,44H4V34h0C9.523,34,14,38.477,14,44L14,44z"/>
<path style="fill:#F0C419;" d="M31,14h-7c-1.657,0-3,1.343-3,3v0c0,1.657,1.343,3,3,3h7V14z"/>
<g>
	<rect x="6" y="25" style="fill:#38454F;" width="4" height="2"/>
	<rect x="6" y="21" style="fill:#38454F;" width="4" height="2"/>
	<rect x="6" y="17" style="fill:#38454F;" width="4" height="2"/>
	<rect x="6" y="13" style="fill:#38454F;" width="4" height="2"/>
</g>
<path style="fill:#38454F;" d="M25,10H8c-0.552,0-1-0.448-1-1s0.448-1,1-1h17c0.552,0,1,0.448,1,1S25.552,10,25,10z"/>
<path style="fill:#38454F;" d="M6.087,6H9V2c0-1.105-0.895-2-2-2S5,0.895,5,2v4.313C5.317,6.118,5.687,6,6.087,6z"/>
<g>
	<rect x="14" y="50" style="fill:#BDC3C7;" width="8" height="2"/>
	<rect x="36" y="50" style="fill:#BDC3C7;" width="8" height="2"/>
</g>
<path style="fill:#BDC3C7;" d="M7,44c-3.866,0-7,3.134-7,7c0,3.866,3.134,7,7,7s7-3.134,7-7C14,47.134,10.866,44,7,44z M7,54
	c-1.654,0-3-1.346-3-3s1.346-3,3-3s3,1.346,3,3S8.654,54,7,54z"/>
<path style="fill:#BDC3C7;" d="M29,44c-3.866,0-7,3.134-7,7c0,3.866,3.134,7,7,7s7-3.134,7-7C36,47.134,32.866,44,29,44z M29,54
	c-1.654,0-3-1.346-3-3s1.346-3,3-3s3,1.346,3,3S30.654,54,29,54z"/>
<path style="fill:#BDC3C7;" d="M51,44c-3.866,0-7,3.134-7,7c0,3.866,3.134,7,7,7s7-3.134,7-7C58,47.134,54.866,44,51,44z M51,54
	c-1.654,0-3-1.346-3-3s1.346-3,3-3s3,1.346,3,3S52.654,54,51,54z"/>
<circle style="fill:none;stroke:#38454F;stroke-width:2;stroke-miterlimit:10;" cx="7" cy="51" r="3"/>
<circle style="fill:none;stroke:#38454F;stroke-width:2;stroke-miterlimit:10;" cx="51" cy="51" r="3"/>
<circle style="fill:none;stroke:#38454F;stroke-width:2;stroke-miterlimit:10;" cx="29" cy="51" r="3"/>
<g>
</g>
<g>
</g>
<g>
</g>
<g>
</g>
<g>
</g>
<g>
</g>
<g>
</g>
<g>
</g>
<g>
</g>
<g>
</g>
<g>
</g>
<g>
</g>
<g>
</g>
<g>
</g>
<g>
</g>
</svg>
